<?xml version="1.0" encoding="iso-8859-1"?>
<!-- Generator: Adobe Illustrator 19.0.0, SVG Export Plug-In . SVG Version: 6.00 Build 0)  -->
<svg version="1.1" id="Capa_1" xmlns="http://www.w3.org/2000/svg" xmlns:xlink="http://www.w3.org/1999/xlink" x="0px" y="0px"
	 viewBox="0 0 512 512" style="enable-background:new 0 0 512 512;" xml:space="preserve">
<g>
	<g>
		<path d="M511.972,54.762c-0.005-0.069-0.004-0.138-0.012-0.207c-0.017-0.18-0.047-0.356-0.077-0.532
			c-0.014-0.087-0.022-0.175-0.04-0.261c-0.03-0.148-0.07-0.292-0.107-0.438c-0.03-0.115-0.056-0.231-0.09-0.346
			c-0.033-0.111-0.076-0.218-0.114-0.327c-0.05-0.145-0.098-0.292-0.158-0.435c-0.031-0.075-0.069-0.148-0.103-0.222
			c-0.076-0.169-0.152-0.339-0.24-0.504c-0.028-0.052-0.061-0.101-0.09-0.152c-0.1-0.179-0.203-0.358-0.317-0.531
			c-0.046-0.069-0.099-0.133-0.148-0.2c-0.11-0.154-0.217-0.308-0.339-0.455c-0.168-0.205-0.346-0.402-0.533-0.59
			c-0.003-0.003-0.005-0.006-0.009-0.01c-0.033-0.033-0.069-0.061-0.104-0.094c-0.16-0.154-0.323-0.306-0.496-0.447
			c-0.068-0.057-0.141-0.105-0.21-0.159c-0.143-0.11-0.286-0.22-0.437-0.321c-0.096-0.065-0.197-0.121-0.296-0.181
			c-0.129-0.079-0.256-0.159-0.39-0.231c-0.125-0.067-0.252-0.123-0.379-0.183c-0.114-0.054-0.227-0.111-0.344-0.16
			c-0.157-0.065-0.317-0.119-0.478-0.174c-0.094-0.032-0.185-0.069-0.281-0.098c-0.203-0.061-0.408-0.11-0.614-0.156
			c-0.056-0.012-0.109-0.03-0.165-0.042l-0.033-0.006c-0.005-0.001-0.011-0.002-0.016-0.003l-33.276-6.657l-6.653-33.271
			c-0.001-0.009-0.003-0.018-0.005-0.028l-0.005-0.026c-0.01-0.045-0.024-0.088-0.033-0.132c-0.047-0.218-0.099-0.435-0.165-0.65
			c-0.027-0.089-0.062-0.174-0.092-0.261c-0.057-0.167-0.112-0.333-0.181-0.496c-0.046-0.112-0.102-0.22-0.153-0.329
			c-0.062-0.132-0.12-0.265-0.189-0.394c-0.07-0.13-0.149-0.254-0.224-0.379c-0.062-0.102-0.121-0.206-0.187-0.307
			c-0.098-0.147-0.206-0.286-0.313-0.425c-0.057-0.074-0.108-0.15-0.168-0.222c-0.139-0.169-0.287-0.328-0.438-0.485
			c-0.036-0.037-0.066-0.077-0.103-0.113c-0.003-0.003-0.006-0.006-0.011-0.009c-0.158-0.158-0.325-0.305-0.495-0.448
			c-0.634-0.537-1.327-0.962-2.059-1.277c-0.028-0.012-0.053-0.026-0.081-0.038c-0.188-0.078-0.38-0.144-0.573-0.208
			c-0.063-0.021-0.124-0.046-0.187-0.065c-0.161-0.05-0.326-0.087-0.49-0.127c-0.098-0.024-0.194-0.051-0.294-0.072
			c-0.139-0.028-0.279-0.044-0.419-0.065c-0.126-0.019-0.25-0.042-0.377-0.054c-0.133-0.013-0.266-0.015-0.399-0.022
			c-0.134-0.007-0.266-0.019-0.401-0.019c-0.228-0.001-0.455,0.013-0.682,0.031c-0.039,0.003-0.077,0.002-0.117,0.006
			c-0.272,0.026-0.545,0.067-0.815,0.12c-0.004,0.001-0.009,0.001-0.013,0.002c-0.048,0.01-0.094,0.026-0.142,0.036
			c-0.215,0.047-0.427,0.098-0.639,0.162c-0.091,0.027-0.176,0.062-0.265,0.093c-0.166,0.056-0.331,0.112-0.493,0.179
			c-0.113,0.047-0.22,0.102-0.33,0.153c-0.133,0.062-0.265,0.12-0.394,0.19c-0.129,0.069-0.252,0.148-0.377,0.223
			c-0.103,0.062-0.207,0.121-0.309,0.189c-0.145,0.098-0.284,0.205-0.423,0.311c-0.075,0.057-0.152,0.109-0.224,0.169
			c-0.167,0.137-0.323,0.283-0.478,0.432c-0.04,0.037-0.081,0.069-0.12,0.108l-0.022,0.023c-0.004,0.004-0.009,0.009-0.013,0.013
			l-68.283,68.284c-0.003,0.004-0.006,0.007-0.01,0.011c-0.175,0.177-0.342,0.362-0.5,0.554c-0.143,0.173-0.275,0.352-0.402,0.533
			c-0.037,0.053-0.079,0.103-0.115,0.157c-0.117,0.174-0.219,0.354-0.321,0.535c-0.029,0.05-0.061,0.097-0.088,0.148
			c-0.089,0.166-0.165,0.335-0.24,0.505c-0.033,0.074-0.072,0.146-0.103,0.221c-0.06,0.144-0.108,0.292-0.159,0.439
			c-0.039,0.107-0.08,0.213-0.113,0.323c-0.034,0.115-0.06,0.233-0.09,0.349c-0.037,0.145-0.077,0.288-0.107,0.436
			c-0.016,0.086-0.026,0.173-0.04,0.259c-0.029,0.177-0.06,0.355-0.077,0.535c-0.006,0.066-0.006,0.132-0.011,0.198
			c-0.015,0.198-0.029,0.396-0.029,0.596c0,0.104,0.011,0.207,0.015,0.31c0.005,0.161,0.006,0.321,0.023,0.483
			c0.027,0.272,0.067,0.542,0.12,0.81c0.001,0.004,0.001,0.008,0.002,0.012l6.876,34.383l-26.186,26.186
			c-19.44-12.791-42.188-19.662-65.996-19.662c-29.493,0-57.367,10.535-79.325,29.822c-21.958-19.288-49.832-29.822-79.325-29.822
			c-32.157,0-62.391,12.524-85.132,35.264c-22.74,22.738-35.263,52.97-35.263,85.128s12.523,62.39,35.262,85.127l61.239,61.24
			l-58.515,58.514l-17.41-17.41c-0.048-0.048-0.1-0.089-0.15-0.136c-0.123-0.116-0.247-0.231-0.377-0.341
			c-0.087-0.073-0.175-0.141-0.264-0.21c-0.121-0.094-0.243-0.185-0.37-0.272c-0.11-0.075-0.221-0.145-0.333-0.215
			c-0.11-0.068-0.221-0.136-0.336-0.199c-0.137-0.076-0.276-0.145-0.416-0.213c-0.098-0.048-0.197-0.095-0.298-0.138
			c-0.159-0.069-0.32-0.13-0.482-0.189c-0.062-0.022-0.12-0.05-0.183-0.071c-0.034-0.011-0.069-0.018-0.104-0.029
			c-0.158-0.05-0.317-0.092-0.477-0.133c-0.113-0.028-0.226-0.059-0.338-0.082c-0.13-0.027-0.261-0.047-0.392-0.067
			c-0.143-0.023-0.286-0.047-0.43-0.062c-0.098-0.011-0.196-0.014-0.294-0.021c-0.173-0.012-0.344-0.024-0.515-0.025
			c-0.078-0.001-0.155,0.005-0.233,0.006c-0.187,0.004-0.374,0.01-0.56,0.027c-0.079,0.007-0.158,0.021-0.236,0.03
			c-0.179,0.022-0.358,0.044-0.535,0.077c-0.104,0.02-0.206,0.047-0.309,0.071c-0.149,0.034-0.298,0.066-0.444,0.108
			c-0.131,0.038-0.26,0.085-0.389,0.129c-0.116,0.04-0.234,0.077-0.348,0.122c-0.14,0.056-0.278,0.121-0.416,0.184
			c-0.102,0.047-0.205,0.091-0.305,0.142c-0.129,0.066-0.254,0.141-0.382,0.214c-0.107,0.062-0.215,0.122-0.32,0.189
			c-0.106,0.068-0.208,0.143-0.312,0.216c-0.122,0.086-0.243,0.172-0.36,0.265c-0.082,0.065-0.161,0.136-0.241,0.204
			c-0.132,0.113-0.262,0.228-0.387,0.349c-0.025,0.024-0.051,0.044-0.076,0.069c-0.045,0.045-0.082,0.094-0.127,0.14
			c-0.121,0.127-0.239,0.255-0.353,0.391c-0.07,0.084-0.137,0.17-0.204,0.257c-0.094,0.122-0.187,0.245-0.275,0.374
			c-0.075,0.11-0.145,0.221-0.216,0.334c-0.067,0.11-0.134,0.22-0.197,0.334c-0.077,0.138-0.148,0.278-0.215,0.419
			c-0.046,0.097-0.093,0.193-0.136,0.292c-0.071,0.163-0.133,0.327-0.192,0.493c-0.021,0.059-0.048,0.115-0.068,0.175l-23.21,69.642
			c-0.019,0.058-0.03,0.116-0.048,0.174c-0.047,0.151-0.089,0.302-0.127,0.456c-0.028,0.114-0.054,0.227-0.077,0.341
			c-0.03,0.148-0.056,0.295-0.077,0.444c-0.018,0.122-0.034,0.244-0.047,0.366c-0.014,0.14-0.022,0.28-0.029,0.422
			C0.005,502.809,0,502.939,0,503.07c0,0.133,0.005,0.266,0.012,0.399c0.006,0.138,0.015,0.276,0.029,0.414
			c0.013,0.125,0.03,0.25,0.048,0.375c0.021,0.146,0.046,0.29,0.075,0.434c0.024,0.118,0.05,0.234,0.08,0.351
			c0.036,0.15,0.078,0.298,0.123,0.444c0.018,0.06,0.03,0.12,0.05,0.18c0.012,0.036,0.031,0.067,0.044,0.103
			c0.127,0.363,0.275,0.718,0.451,1.06c0.034,0.066,0.073,0.129,0.109,0.194c0.163,0.296,0.342,0.582,0.54,0.856
			c0.037,0.051,0.071,0.105,0.108,0.155c0.221,0.292,0.468,0.566,0.728,0.828c0.059,0.059,0.119,0.116,0.178,0.173
			c0.274,0.258,0.561,0.503,0.871,0.725c0.009,0.005,0.017,0.01,0.025,0.016c0.299,0.211,0.618,0.397,0.948,0.569
			c0.069,0.036,0.138,0.072,0.207,0.106c0.316,0.153,0.64,0.294,0.982,0.408c0.014,0.005,0.029,0.006,0.043,0.011
			c0.349,0.115,0.711,0.197,1.074,0.264c0.064,0.012,0.127,0.035,0.19,0.045c0.423,0.067,0.854,0.103,1.288,0.103h0.001h0.001
			c0.434,0,0.865-0.036,1.287-0.103c0.068-0.011,0.136-0.036,0.204-0.049c0.359-0.067,0.715-0.148,1.06-0.261
			c0.015-0.005,0.029-0.006,0.044-0.011l69.643-23.214c0.065-0.022,0.126-0.051,0.19-0.074c0.157-0.057,0.314-0.117,0.469-0.183
			c0.107-0.046,0.209-0.096,0.313-0.146c0.135-0.065,0.268-0.132,0.4-0.205c0.12-0.066,0.236-0.136,0.352-0.207
			c0.107-0.067,0.214-0.134,0.318-0.206c0.131-0.09,0.259-0.185,0.384-0.282c0.084-0.065,0.168-0.13,0.25-0.199
			c0.135-0.113,0.263-0.231,0.39-0.352c0.046-0.044,0.096-0.083,0.142-0.129c0.026-0.025,0.046-0.053,0.072-0.078
			c0.117-0.121,0.228-0.246,0.337-0.374c0.074-0.085,0.149-0.169,0.218-0.257c0.087-0.108,0.166-0.222,0.246-0.334
			c0.08-0.113,0.162-0.225,0.236-0.341c0.059-0.091,0.11-0.185,0.165-0.278c0.082-0.141,0.165-0.281,0.238-0.424
			c0.042-0.082,0.076-0.166,0.115-0.249c0.073-0.156,0.146-0.313,0.208-0.473c0.036-0.091,0.065-0.185,0.097-0.278
			c0.053-0.152,0.108-0.305,0.153-0.459c0.034-0.12,0.06-0.243,0.089-0.364c0.031-0.13,0.065-0.259,0.089-0.39
			c0.028-0.15,0.046-0.302,0.066-0.454c0.013-0.106,0.031-0.211,0.041-0.317c0.015-0.164,0.018-0.329,0.024-0.495
			c0.002-0.099,0.009-0.197,0.009-0.295c-0.001-0.155-0.013-0.311-0.022-0.467c-0.007-0.114-0.012-0.228-0.025-0.341
			c-0.014-0.131-0.036-0.263-0.057-0.394c-0.022-0.142-0.044-0.284-0.073-0.425c-0.022-0.105-0.05-0.209-0.077-0.314
			c-0.042-0.167-0.085-0.332-0.138-0.496c-0.011-0.033-0.017-0.066-0.028-0.099c-0.02-0.06-0.047-0.115-0.068-0.175
			c-0.06-0.166-0.122-0.332-0.193-0.495c-0.042-0.097-0.088-0.192-0.133-0.287c-0.069-0.144-0.141-0.286-0.219-0.427
			c-0.061-0.111-0.126-0.218-0.191-0.325c-0.072-0.115-0.144-0.23-0.221-0.343c-0.087-0.125-0.176-0.245-0.268-0.364
			c-0.069-0.09-0.139-0.179-0.212-0.266c-0.11-0.131-0.225-0.256-0.344-0.38c-0.046-0.048-0.085-0.1-0.133-0.147l-17.411-17.411
			l58.515-58.515l85.807,85.809c1.54,1.539,3.627,2.404,5.804,2.404s4.264-0.865,5.804-2.404l158.656-158.656
			c46.938-46.939,46.938-123.315-0.001-170.256c-1.932-1.932-3.921-3.783-5.958-5.566l24.612-24.612l34.386,6.876
			c0.004,0.001,0.01,0.001,0.014,0.002c0.201,0.04,0.404,0.066,0.608,0.09c0.066,0.009,0.134,0.022,0.2,0.029
			c0.019,0.002,0.04,0.002,0.059,0.003c0.247,0.022,0.494,0.036,0.737,0.036c0.259,0,0.515-0.014,0.771-0.038
			c0.019-0.002,0.039-0.006,0.059-0.008c0.229-0.024,0.456-0.056,0.681-0.098c0.069-0.013,0.139-0.031,0.208-0.046
			c0.171-0.037,0.342-0.077,0.509-0.124c0.096-0.027,0.19-0.058,0.284-0.089c0.139-0.045,0.276-0.092,0.411-0.144
			c0.108-0.042,0.215-0.085,0.322-0.131c0.12-0.052,0.238-0.107,0.356-0.165c0.11-0.054,0.219-0.108,0.327-0.167
			c0.119-0.065,0.234-0.136,0.348-0.206c0.098-0.06,0.198-0.117,0.293-0.182c0.197-0.132,0.388-0.272,0.573-0.421
			c0.032-0.026,0.063-0.054,0.094-0.081c0.177-0.147,0.348-0.301,0.513-0.463c0.015-0.015,0.032-0.027,0.047-0.042l68.318-68.318
			c0.037-0.037,0.067-0.077,0.104-0.114c0.133-0.137,0.261-0.278,0.384-0.425c0.056-0.066,0.109-0.133,0.161-0.2
			c0.107-0.136,0.208-0.275,0.307-0.417c0.052-0.076,0.105-0.151,0.154-0.228c0.089-0.139,0.171-0.282,0.251-0.426
			c0.047-0.083,0.095-0.164,0.138-0.247c0.074-0.144,0.139-0.292,0.204-0.441c0.038-0.086,0.081-0.171,0.115-0.259
			c0.062-0.156,0.114-0.316,0.167-0.477c0.055-0.165,0.103-0.33,0.146-0.497c0.039-0.153,0.082-0.304,0.113-0.461
			c0.001-0.004,0.001-0.007,0.001-0.011c0.053-0.269,0.095-0.541,0.121-0.813c0.012-0.15,0.012-0.291,0.019-0.434
			c0.005-0.121,0.017-0.243,0.017-0.364C512,55.152,511.986,54.957,511.972,54.762z M21.18,490.094l13.824-41.472l27.647,27.648
			L21.18,490.094z M369.218,313.672L216.366,466.525l-85.804-85.805c-0.001-0.002-0.002-0.003-0.003-0.004
			c-0.001-0.001-0.003-0.003-0.004-0.004l-67.039-67.04c-19.639-19.636-30.454-45.747-30.454-73.52
			c0-27.773,10.815-53.883,30.454-73.521c19.641-19.64,45.753-30.455,73.526-30.455c27.774,0,53.883,10.816,73.521,30.455
			c1.539,1.539,3.627,2.404,5.804,2.404s4.265-0.865,5.804-2.404c19.637-19.64,45.747-30.455,73.521-30.455
			c19.39,0,37.967,5.278,54.1,15.143l-20.139,20.139c-1.68-0.831-3.381-1.622-5.126-2.329c-9.096-3.684-18.793-5.565-28.865-5.59
			c-10.035,0.025-19.729,1.907-28.811,5.591c-9.466,3.836-17.99,9.5-25.345,16.844c-6.598,6.606-15.736,10.401-25.079,10.417
			c-0.019,0-0.036-0.003-0.054-0.003h-0.055c-4.564,0-9.258-0.941-13.57-2.736c-4.323-1.795-8.306-4.454-11.524-7.682
			c-7.354-7.343-15.879-13.012-25.345-16.842c-5.143-2.079-10.539-3.6-16.032-4.52c-0.449-0.076-0.908-0.12-1.357-0.12
			c-4.027,0-7.42,2.889-8.087,6.862c-0.361,2.167,0.142,4.334,1.412,6.117c1.28,1.784,3.173,2.966,5.33,3.327
			c4.322,0.722,8.546,1.915,12.573,3.546c7.42,3.009,14.118,7.474,19.907,13.241c4.826,4.826,10.505,8.613,16.864,11.25
			c6.291,2.603,12.919,3.945,19.707,3.968c0.057,0.001,0.113,0.009,0.171,0.009c13.691,0,27.087-5.553,36.746-15.226
			c5.787-5.777,12.484-10.231,19.907-13.239c7.129-2.892,14.761-4.368,22.644-4.388c7.498,0.019,14.735,1.359,21.542,3.952
			l-62.863,62.864c-3.205,3.205-3.205,8.402,0,11.607c1.603,1.603,3.704,2.404,5.804,2.404c2.1,0,4.201-0.802,5.804-2.404
			l66.158-66.159c2.144,1.64,4.202,3.42,6.149,5.364c5.781,5.79,10.234,12.483,13.239,19.896c2.89,7.122,4.37,14.762,4.4,22.644
			c-0.03,7.938-1.51,15.574-4.4,22.699c-3.009,7.423-7.464,14.12-13.235,19.9L216.366,404.616L94.47,282.722
			c-5.767-5.779-10.221-12.476-13.241-19.896c-2.878-7.124-4.356-14.741-4.399-22.675c0.043-7.923,1.521-15.562,4.399-22.675
			c3.009-7.409,7.464-14.106,13.241-19.896c5.789-5.778,12.487-10.232,19.896-13.241c1.379-0.558,2.79-1.062,4.191-1.511
			c4.311-1.39,6.698-6.019,5.318-10.319c-1.094-3.415-4.235-5.713-7.813-5.713c-0.854,0-1.696,0.132-2.517,0.394
			c-1.762,0.569-3.568,1.215-5.34,1.937c-9.456,3.83-17.981,9.499-25.335,16.842c-7.354,7.365-13.023,15.879-16.854,25.345
			c-3.676,9.061-5.559,18.757-5.602,28.814v0.054c0.043,10.046,1.926,19.742,5.602,28.803c3.842,9.467,9.5,17.992,16.843,25.335
			l127.7,127.711c0.396,0.393,0.825,0.741,1.28,1.042c0.053,0.035,0.109,0.063,0.163,0.097c0.174,0.11,0.348,0.217,0.529,0.313
			c0.083,0.044,0.169,0.079,0.253,0.119c0.156,0.075,0.31,0.153,0.47,0.219c0.11,0.045,0.223,0.079,0.334,0.119
			c0.137,0.049,0.273,0.103,0.411,0.144c0.167,0.05,0.336,0.087,0.505,0.126c0.087,0.02,0.171,0.046,0.259,0.063
			c0.528,0.105,1.064,0.159,1.601,0.159c0.538,0,1.075-0.055,1.605-0.159c0.055-0.011,0.106-0.028,0.16-0.039
			c0.201-0.044,0.402-0.09,0.601-0.15c0.134-0.04,0.264-0.091,0.395-0.138c0.117-0.041,0.233-0.077,0.347-0.124
			c0.174-0.071,0.342-0.154,0.51-0.237c0.071-0.034,0.142-0.062,0.211-0.099c0.214-0.112,0.42-0.236,0.622-0.367
			c0.022-0.014,0.046-0.026,0.068-0.041c0.457-0.302,0.889-0.65,1.287-1.045c0.021-0.021,0.039-0.044,0.059-0.065l127.643-127.644
			c7.333-7.345,12.998-15.869,16.834-25.334c3.68-9.072,5.565-18.763,5.603-28.867c-0.039-10.048-1.924-19.743-5.603-28.813
			c-3.832-9.455-9.497-17.975-16.844-25.335c-1.94-1.937-3.966-3.749-6.064-5.45l19.432-19.432c2.056,1.761,4.054,3.605,5.988,5.538
			C409.756,207.171,409.756,273.133,369.218,313.672z M397.955,79.942l54.367-54.369l3.869,19.345l-54.367,54.368L397.955,79.942z
			 M432.777,114.763l-19.347-3.869l54.368-54.369l19.346,3.87L432.777,114.763z"/>
	</g>
</g>
<g>
</g>
<g>
</g>
<g>
</g>
<g>
</g>
<g>
</g>
<g>
</g>
<g>
</g>
<g>
</g>
<g>
</g>
<g>
</g>
<g>
</g>
<g>
</g>
<g>
</g>
<g>
</g>
<g>
</g>
</svg>
